<?xml version="1.0" standalone="no"?><svg xmlns="http://www.w3.org/2000/svg" viewBox="0 0 1440 320"><path fill="#0099ff" fill-opacity="1" d="M0,224L24,240C48,256,96,288,144,261.3C192,235,240,149,288,96C336,43,384,21,432,42.7C480,64,528,128,576,138.7C624,149,672,107,720,117.3C768,128,816,192,864,218.7C912,245,960,235,1008,197.3C1056,160,1104,96,1152,80C1200,64,1248,96,1296,96C1344,96,1392,64,1416,48L1440,32L1440,320L1416,320C1392,320,1344,320,1296,320C1248,320,1200,320,1152,320C1104,320,1056,320,1008,320C960,320,912,320,864,320C816,320,768,320,720,320C672,320,624,320,576,320C528,320,480,320,432,320C384,320,336,320,288,320C240,320,192,320,144,320C96,320,48,320,24,320L0,320Z"></path></svg>